<svg xmlns="http://www.w3.org/2000/svg" xmlns:xlink="http://www.w3.org/1999/xlink" width="500" zoomAndPan="magnify" viewBox="0 0 375 374.999991" height="500" preserveAspectRatio="xMidYMid meet" version="1.0"><defs><g/></defs><path fill="#004aad" d="M 186.242188 146.15625 C 186.167969 146.125 186.089844 146.097656 186.007812 146.082031 C 185.753906 146.039062 185.503906 146.011719 185.253906 145.992188 C 183.519531 140.292969 178.023438 136.242188 171.851562 136.242188 C 164.140625 136.242188 157.867188 142.34375 157.867188 149.84375 C 157.867188 150.082031 157.875 150.320312 157.890625 150.5625 C 157.539062 150.507812 157.175781 150.484375 156.792969 150.503906 C 156.789062 150.503906 156.785156 150.503906 156.78125 150.503906 C 156.765625 150.503906 156.75 150.507812 156.738281 150.507812 C 156.726562 150.507812 156.714844 150.507812 156.699219 150.507812 C 156.699219 150.507812 156.695312 150.507812 156.691406 150.507812 C 152.390625 150.554688 148.90625 153.976562 148.90625 158.183594 C 148.90625 162.414062 152.4375 165.855469 156.78125 165.855469 L 161.652344 165.855469 C 162.273438 165.855469 162.773438 165.351562 162.773438 164.734375 C 162.773438 164.113281 162.273438 163.609375 161.652344 163.609375 L 156.78125 163.609375 C 153.675781 163.609375 151.148438 161.175781 151.148438 158.183594 C 151.148438 155.1875 153.675781 152.75 156.78125 152.75 C 157.222656 152.75 157.679688 152.8125 158.144531 152.929688 C 159.269531 153.304688 160.082031 154.125 160.105469 154.148438 C 160.324219 154.382812 160.625 154.503906 160.921875 154.503906 C 161.195312 154.503906 161.472656 154.402344 161.6875 154.199219 C 162.140625 153.777344 162.164062 153.066406 161.738281 152.613281 C 161.695312 152.566406 161.144531 151.984375 160.246094 151.445312 C 160.164062 150.910156 160.113281 150.371094 160.113281 149.84375 C 160.113281 143.582031 165.378906 138.484375 171.851562 138.484375 C 176.847656 138.484375 181.304688 141.628906 182.921875 146.117188 C 181.15625 146.445312 179.9375 147.183594 179.863281 147.230469 C 179.339844 147.558594 179.179688 148.246094 179.503906 148.769531 C 179.714844 149.113281 180.082031 149.304688 180.460938 149.304688 C 180.660156 149.304688 180.863281 149.25 181.046875 149.140625 C 181.0625 149.128906 182.402344 148.328125 184.183594 148.21875 L 184.382812 148.21875 C 188.738281 148.25 192.28125 151.703125 192.28125 155.914062 C 192.28125 160.15625 188.710938 163.609375 184.320312 163.609375 L 179.058594 163.609375 C 178.980469 163.609375 178.902344 163.621094 178.824219 163.636719 C 178.734375 163.613281 178.640625 163.59375 178.542969 163.59375 L 178.351562 163.59375 C 175.632812 163.585938 172.320312 163.589844 170.347656 167.601562 C 168.800781 170.746094 169.023438 176.578125 169.171875 178.78125 L 166.882812 177.171875 C 166.375 176.816406 165.675781 176.941406 165.320312 177.445312 C 164.964844 177.953125 165.085938 178.652344 165.59375 179.011719 L 169.53125 181.777344 C 169.546875 181.789062 169.566406 181.792969 169.582031 181.800781 C 169.648438 181.84375 169.714844 181.875 169.785156 181.902344 C 169.816406 181.914062 169.84375 181.925781 169.875 181.933594 C 169.96875 181.960938 170.070312 181.980469 170.167969 181.980469 C 170.171875 181.980469 170.171875 181.980469 170.175781 181.980469 C 170.179688 181.980469 170.179688 181.980469 170.183594 181.980469 C 170.28125 181.980469 170.378906 181.964844 170.472656 181.9375 C 170.503906 181.929688 170.53125 181.914062 170.558594 181.90625 C 170.632812 181.878906 170.699219 181.847656 170.765625 181.804688 C 170.78125 181.796875 170.796875 181.792969 170.8125 181.78125 L 174.75 179.078125 C 175.261719 178.726562 175.390625 178.03125 175.042969 177.519531 C 174.691406 177.007812 173.992188 176.878906 173.480469 177.226562 L 171.410156 178.648438 C 171.234375 176.117188 171.164062 171.03125 172.359375 168.589844 C 173.714844 165.832031 175.871094 165.828125 178.347656 165.839844 L 178.542969 165.839844 C 178.621094 165.839844 178.699219 165.828125 178.773438 165.8125 C 178.863281 165.835938 178.957031 165.855469 179.054688 165.855469 L 184.316406 165.855469 C 189.945312 165.855469 194.527344 161.394531 194.527344 155.910156 C 194.527344 151.085938 190.949219 147.035156 186.242188 146.15625 Z M 186.242188 146.15625 " fill-opacity="1" fill-rule="nonzero"/><path fill="#004aad" d="M 176.316406 170.121094 L 175.589844 170.121094 C 174.96875 170.121094 174.464844 170.625 174.464844 171.246094 C 174.464844 171.863281 174.96875 172.367188 175.589844 172.367188 L 176.316406 172.367188 C 176.785156 172.367188 177.222656 172.546875 177.546875 172.875 C 177.84375 173.175781 178.007812 173.566406 178.007812 173.976562 L 177.992188 191.003906 L 140.34375 190.992188 L 140.355469 173.964844 C 140.359375 173.082031 141.117188 172.363281 142.050781 172.363281 L 158.667969 172.363281 C 158.675781 172.363281 158.6875 172.367188 158.695312 172.367188 L 159.117188 172.367188 C 159.253906 172.367188 159.394531 172.367188 159.53125 172.367188 C 161.664062 172.367188 163.515625 172.335938 164.988281 171.753906 C 166.914062 170.992188 167.890625 169.367188 167.890625 166.921875 C 167.890625 163.871094 167.914062 160.355469 167.925781 158.898438 L 170.285156 160.550781 C 170.480469 160.6875 170.703125 160.753906 170.929688 160.753906 C 171.28125 160.753906 171.628906 160.589844 171.847656 160.277344 C 172.203125 159.769531 172.078125 159.070312 171.574219 158.714844 L 167.636719 155.949219 C 167.628906 155.945312 167.621094 155.941406 167.617188 155.9375 C 167.582031 155.914062 167.546875 155.898438 167.511719 155.878906 C 167.480469 155.863281 167.449219 155.84375 167.417969 155.832031 C 167.386719 155.820312 167.355469 155.8125 167.324219 155.800781 C 167.285156 155.789062 167.246094 155.777344 167.207031 155.769531 C 167.179688 155.761719 167.15625 155.761719 167.128906 155.757812 C 167.082031 155.753906 167.039062 155.746094 166.992188 155.746094 C 166.964844 155.746094 166.9375 155.75 166.910156 155.753906 C 166.867188 155.753906 166.824219 155.757812 166.78125 155.765625 C 166.75 155.773438 166.722656 155.78125 166.695312 155.789062 C 166.652344 155.800781 166.613281 155.8125 166.570312 155.828125 C 166.546875 155.839844 166.519531 155.855469 166.492188 155.867188 C 166.453125 155.886719 166.414062 155.90625 166.375 155.929688 C 166.371094 155.933594 166.363281 155.9375 166.355469 155.941406 L 162.417969 158.644531 C 161.90625 158.996094 161.777344 159.695312 162.128906 160.207031 C 162.34375 160.523438 162.695312 160.691406 163.054688 160.691406 C 163.273438 160.691406 163.492188 160.628906 163.6875 160.496094 L 165.683594 159.125 C 165.667969 160.710938 165.648438 164.023438 165.648438 166.921875 C 165.648438 168.816406 164.933594 169.359375 164.164062 169.664062 C 162.996094 170.125 161.203125 170.121094 159.121094 170.121094 L 159.082031 170.121094 C 159.074219 170.121094 159.0625 170.117188 159.050781 170.117188 L 142.054688 170.117188 C 139.882812 170.117188 138.117188 171.84375 138.113281 173.964844 L 138.097656 193.929688 C 138.09375 194.964844 138.507812 195.9375 139.261719 196.671875 C 140.003906 197.394531 140.988281 197.792969 142.03125 197.792969 L 155.683594 197.796875 C 155.308594 199.246094 154.3125 201.53125 151.699219 201.53125 L 151.699219 203.03125 L 166.648438 203.03125 L 166.648438 201.53125 C 164.054688 201.53125 163.050781 199.25 162.671875 197.800781 L 176.292969 197.804688 C 176.296875 197.804688 176.296875 197.804688 176.296875 197.804688 C 178.464844 197.804688 180.234375 196.074219 180.238281 193.949219 L 180.253906 173.980469 C 180.257812 172.972656 179.859375 172.015625 179.136719 171.289062 C 178.386719 170.539062 177.386719 170.125 176.316406 170.121094 Z M 163.019531 201.53125 L 155.328125 201.53125 C 156.378906 200.464844 156.957031 199.015625 157.222656 197.796875 L 161.128906 197.796875 C 161.394531 199.015625 161.972656 200.464844 163.019531 201.53125 Z M 176.296875 195.558594 C 176.296875 195.558594 176.292969 195.558594 176.292969 195.558594 L 142.03125 195.546875 C 141.578125 195.546875 141.148438 195.375 140.824219 195.0625 C 140.511719 194.757812 140.339844 194.355469 140.339844 193.933594 L 140.339844 192.488281 L 177.992188 192.5 L 177.992188 193.945312 C 177.992188 194.835938 177.230469 195.558594 176.296875 195.558594 Z M 176.296875 195.558594 " fill-opacity="1" fill-rule="nonzero"/><g fill="#004aad" fill-opacity="1"><g transform="translate(185.875305, 196.285944)"><g><path d="M 2.453125 0 L 2.453125 -27.4375 L 12.0625 -27.4375 C 15.382812 -27.4375 17.90625 -26.796875 19.625 -25.515625 C 21.351562 -24.242188 22.21875 -22.378906 22.21875 -19.921875 C 22.21875 -18.578125 21.867188 -17.390625 21.171875 -16.359375 C 20.484375 -15.335938 19.523438 -14.585938 18.296875 -14.109375 C 19.703125 -13.765625 20.8125 -13.054688 21.625 -11.984375 C 22.4375 -10.921875 22.84375 -9.613281 22.84375 -8.0625 C 22.84375 -5.425781 22 -3.425781 20.3125 -2.0625 C 18.632812 -0.707031 16.234375 -0.0195312 13.109375 0 Z M 8.109375 -11.953125 L 8.109375 -4.546875 L 12.953125 -4.546875 C 14.273438 -4.546875 15.3125 -4.859375 16.0625 -5.484375 C 16.8125 -6.117188 17.1875 -7 17.1875 -8.125 C 17.1875 -10.632812 15.882812 -11.910156 13.28125 -11.953125 Z M 8.109375 -15.9375 L 12.28125 -15.9375 C 15.132812 -15.988281 16.5625 -17.128906 16.5625 -19.359375 C 16.5625 -20.597656 16.195312 -21.488281 15.46875 -22.03125 C 14.75 -22.582031 13.613281 -22.859375 12.0625 -22.859375 L 8.109375 -22.859375 Z M 8.109375 -15.9375 "/></g></g></g><g fill="#004aad" fill-opacity="1"><g transform="translate(210.509061, 196.285944)"><g><path d="M 23.984375 -9.140625 C 23.773438 -6.191406 22.6875 -3.867188 20.71875 -2.171875 C 18.75 -0.472656 16.160156 0.375 12.953125 0.375 C 9.429688 0.375 6.660156 -0.804688 4.640625 -3.171875 C 2.628906 -5.546875 1.625 -8.796875 1.625 -12.921875 L 1.625 -14.609375 C 1.625 -17.242188 2.085938 -19.566406 3.015625 -21.578125 C 3.941406 -23.585938 5.269531 -25.128906 7 -26.203125 C 8.726562 -27.273438 10.734375 -27.8125 13.015625 -27.8125 C 16.179688 -27.8125 18.734375 -26.960938 20.671875 -25.265625 C 22.609375 -23.578125 23.726562 -21.195312 24.03125 -18.125 L 18.375 -18.125 C 18.238281 -19.894531 17.742188 -21.175781 16.890625 -21.96875 C 16.046875 -22.769531 14.753906 -23.171875 13.015625 -23.171875 C 11.128906 -23.171875 9.71875 -22.492188 8.78125 -21.140625 C 7.851562 -19.796875 7.375 -17.707031 7.34375 -14.875 L 7.34375 -12.796875 C 7.34375 -9.828125 7.789062 -7.65625 8.6875 -6.28125 C 9.59375 -4.914062 11.015625 -4.234375 12.953125 -4.234375 C 14.691406 -4.234375 15.988281 -4.632812 16.84375 -5.4375 C 17.707031 -6.238281 18.203125 -7.472656 18.328125 -9.140625 Z M 23.984375 -9.140625 "/></g></g></g><g fill="#004aad" fill-opacity="1"><g transform="translate(235.764781, 196.285944)"><g><path d="M 7.40625 -16.125 L 10.3125 -16.125 C 11.6875 -16.125 12.707031 -16.46875 13.375 -17.15625 C 14.039062 -17.851562 14.375 -18.773438 14.375 -19.921875 C 14.375 -21.023438 14.046875 -21.882812 13.390625 -22.5 C 12.734375 -23.113281 11.828125 -23.421875 10.671875 -23.421875 C 9.628906 -23.421875 8.753906 -23.132812 8.046875 -22.5625 C 7.335938 -21.988281 6.984375 -21.242188 6.984375 -20.328125 L 1.546875 -20.328125 C 1.546875 -21.765625 1.929688 -23.050781 2.703125 -24.1875 C 3.472656 -25.320312 4.550781 -26.207031 5.9375 -26.84375 C 7.332031 -27.488281 8.863281 -27.8125 10.53125 -27.8125 C 13.4375 -27.8125 15.710938 -27.117188 17.359375 -25.734375 C 19.003906 -24.347656 19.828125 -22.4375 19.828125 -20 C 19.828125 -18.738281 19.441406 -17.578125 18.671875 -16.515625 C 17.910156 -15.460938 16.90625 -14.65625 15.65625 -14.09375 C 17.207031 -13.539062 18.363281 -12.710938 19.125 -11.609375 C 19.882812 -10.503906 20.265625 -9.195312 20.265625 -7.6875 C 20.265625 -5.25 19.375 -3.296875 17.59375 -1.828125 C 15.8125 -0.359375 13.457031 0.375 10.53125 0.375 C 7.789062 0.375 5.550781 -0.34375 3.8125 -1.78125 C 2.070312 -3.226562 1.203125 -5.140625 1.203125 -7.515625 L 6.65625 -7.515625 C 6.65625 -6.484375 7.039062 -5.640625 7.8125 -4.984375 C 8.582031 -4.335938 9.535156 -4.015625 10.671875 -4.015625 C 11.960938 -4.015625 12.972656 -4.351562 13.703125 -5.03125 C 14.441406 -5.71875 14.8125 -6.628906 14.8125 -7.765625 C 14.8125 -10.503906 13.304688 -11.875 10.296875 -11.875 L 7.40625 -11.875 Z M 7.40625 -16.125 "/></g></g></g><g fill="#004aad" fill-opacity="1"><g transform="translate(130.047461, 211.122056)"><g><path d="M 0.640625 0 L 0.640625 -7.109375 L 3.125 -7.109375 C 3.988281 -7.109375 4.640625 -6.941406 5.078125 -6.609375 C 5.523438 -6.285156 5.75 -5.800781 5.75 -5.15625 C 5.75 -4.8125 5.660156 -4.503906 5.484375 -4.234375 C 5.304688 -3.972656 5.054688 -3.78125 4.734375 -3.65625 C 5.097656 -3.5625 5.382812 -3.375 5.59375 -3.09375 C 5.8125 -2.820312 5.921875 -2.488281 5.921875 -2.09375 C 5.921875 -1.40625 5.703125 -0.882812 5.265625 -0.53125 C 4.828125 -0.1875 4.207031 -0.0078125 3.40625 0 Z M 2.09375 -3.09375 L 2.09375 -1.171875 L 3.359375 -1.171875 C 3.703125 -1.171875 3.96875 -1.253906 4.15625 -1.421875 C 4.351562 -1.585938 4.453125 -1.816406 4.453125 -2.109375 C 4.453125 -2.753906 4.113281 -3.082031 3.4375 -3.09375 Z M 2.09375 -4.125 L 3.1875 -4.125 C 3.925781 -4.144531 4.296875 -4.441406 4.296875 -5.015625 C 4.296875 -5.335938 4.203125 -5.566406 4.015625 -5.703125 C 3.828125 -5.847656 3.53125 -5.921875 3.125 -5.921875 L 2.09375 -5.921875 Z M 2.09375 -4.125 "/></g></g></g><g fill="#004aad" fill-opacity="1"><g transform="translate(136.426809, 211.122056)"><g><path d="M 2.96875 0.09375 C 2.195312 0.09375 1.566406 -0.140625 1.078125 -0.609375 C 0.597656 -1.085938 0.359375 -1.722656 0.359375 -2.515625 L 0.359375 -2.65625 C 0.359375 -3.1875 0.457031 -3.660156 0.65625 -4.078125 C 0.863281 -4.492188 1.15625 -4.8125 1.53125 -5.03125 C 1.90625 -5.257812 2.332031 -5.375 2.8125 -5.375 C 3.539062 -5.375 4.109375 -5.144531 4.515625 -4.6875 C 4.929688 -4.238281 5.140625 -3.597656 5.140625 -2.765625 L 5.140625 -2.1875 L 1.78125 -2.1875 C 1.820312 -1.84375 1.957031 -1.566406 2.1875 -1.359375 C 2.425781 -1.148438 2.71875 -1.046875 3.0625 -1.046875 C 3.601562 -1.046875 4.03125 -1.238281 4.34375 -1.625 L 5.03125 -0.859375 C 4.820312 -0.554688 4.535156 -0.320312 4.171875 -0.15625 C 3.816406 0.0078125 3.414062 0.09375 2.96875 0.09375 Z M 2.8125 -4.234375 C 2.53125 -4.234375 2.300781 -4.140625 2.125 -3.953125 C 1.957031 -3.765625 1.847656 -3.492188 1.796875 -3.140625 L 3.765625 -3.140625 L 3.765625 -3.25 C 3.753906 -3.5625 3.664062 -3.800781 3.5 -3.96875 C 3.34375 -4.144531 3.113281 -4.234375 2.8125 -4.234375 Z M 2.8125 -4.234375 "/></g></g></g><g fill="#004aad" fill-opacity="1"><g transform="translate(141.829977, 211.122056)"><g><path d="M 1.84375 -5.28125 L 1.890625 -4.671875 C 2.265625 -5.140625 2.769531 -5.375 3.40625 -5.375 C 3.96875 -5.375 4.382812 -5.207031 4.65625 -4.875 C 4.925781 -4.550781 5.066406 -4.0625 5.078125 -3.40625 L 5.078125 0 L 3.65625 0 L 3.65625 -3.375 C 3.65625 -3.675781 3.585938 -3.894531 3.453125 -4.03125 C 3.328125 -4.164062 3.113281 -4.234375 2.8125 -4.234375 C 2.414062 -4.234375 2.117188 -4.0625 1.921875 -3.71875 L 1.921875 0 L 0.515625 0 L 0.515625 -5.28125 Z M 1.84375 -5.28125 "/></g></g></g><g fill="#004aad" fill-opacity="1"><g transform="translate(147.42838, 211.122056)"><g><path d="M 1.84375 -5.28125 L 1.890625 -4.671875 C 2.265625 -5.140625 2.769531 -5.375 3.40625 -5.375 C 3.96875 -5.375 4.382812 -5.207031 4.65625 -4.875 C 4.925781 -4.550781 5.066406 -4.0625 5.078125 -3.40625 L 5.078125 0 L 3.65625 0 L 3.65625 -3.375 C 3.65625 -3.675781 3.585938 -3.894531 3.453125 -4.03125 C 3.328125 -4.164062 3.113281 -4.234375 2.8125 -4.234375 C 2.414062 -4.234375 2.117188 -4.0625 1.921875 -3.71875 L 1.921875 0 L 0.515625 0 L 0.515625 -5.28125 Z M 1.84375 -5.28125 "/></g></g></g><g fill="#004aad" fill-opacity="1"><g transform="translate(153.026784, 211.122056)"><g><path d="M 2.96875 0.09375 C 2.195312 0.09375 1.566406 -0.140625 1.078125 -0.609375 C 0.597656 -1.085938 0.359375 -1.722656 0.359375 -2.515625 L 0.359375 -2.65625 C 0.359375 -3.1875 0.457031 -3.660156 0.65625 -4.078125 C 0.863281 -4.492188 1.15625 -4.8125 1.53125 -5.03125 C 1.90625 -5.257812 2.332031 -5.375 2.8125 -5.375 C 3.539062 -5.375 4.109375 -5.144531 4.515625 -4.6875 C 4.929688 -4.238281 5.140625 -3.597656 5.140625 -2.765625 L 5.140625 -2.1875 L 1.78125 -2.1875 C 1.820312 -1.84375 1.957031 -1.566406 2.1875 -1.359375 C 2.425781 -1.148438 2.71875 -1.046875 3.0625 -1.046875 C 3.601562 -1.046875 4.03125 -1.238281 4.34375 -1.625 L 5.03125 -0.859375 C 4.820312 -0.554688 4.535156 -0.320312 4.171875 -0.15625 C 3.816406 0.0078125 3.414062 0.09375 2.96875 0.09375 Z M 2.8125 -4.234375 C 2.53125 -4.234375 2.300781 -4.140625 2.125 -3.953125 C 1.957031 -3.765625 1.847656 -3.492188 1.796875 -3.140625 L 3.765625 -3.140625 L 3.765625 -3.25 C 3.753906 -3.5625 3.664062 -3.800781 3.5 -3.96875 C 3.34375 -4.144531 3.113281 -4.234375 2.8125 -4.234375 Z M 2.8125 -4.234375 "/></g></g></g><g fill="#004aad" fill-opacity="1"><g transform="translate(158.429951, 211.122056)"><g><path d="M 2.234375 -6.578125 L 2.234375 -5.28125 L 3.140625 -5.28125 L 3.140625 -4.25 L 2.234375 -4.25 L 2.234375 -1.609375 C 2.234375 -1.410156 2.269531 -1.269531 2.34375 -1.1875 C 2.414062 -1.101562 2.5625 -1.0625 2.78125 -1.0625 C 2.9375 -1.0625 3.070312 -1.070312 3.1875 -1.09375 L 3.1875 -0.03125 C 2.914062 0.0507812 2.628906 0.09375 2.328125 0.09375 C 1.335938 0.09375 0.835938 -0.40625 0.828125 -1.40625 L 0.828125 -4.25 L 0.046875 -4.25 L 0.046875 -5.28125 L 0.828125 -5.28125 L 0.828125 -6.578125 Z M 2.234375 -6.578125 "/></g></g></g><g fill="#004aad" fill-opacity="1"><g transform="translate(161.807537, 211.122056)"><g><path d="M 2.234375 -6.578125 L 2.234375 -5.28125 L 3.140625 -5.28125 L 3.140625 -4.25 L 2.234375 -4.25 L 2.234375 -1.609375 C 2.234375 -1.410156 2.269531 -1.269531 2.34375 -1.1875 C 2.414062 -1.101562 2.5625 -1.0625 2.78125 -1.0625 C 2.9375 -1.0625 3.070312 -1.070312 3.1875 -1.09375 L 3.1875 -0.03125 C 2.914062 0.0507812 2.628906 0.09375 2.328125 0.09375 C 1.335938 0.09375 0.835938 -0.40625 0.828125 -1.40625 L 0.828125 -4.25 L 0.046875 -4.25 L 0.046875 -5.28125 L 0.828125 -5.28125 L 0.828125 -6.578125 Z M 2.234375 -6.578125 "/></g></g></g><g fill="#004aad" fill-opacity="1"><g transform="translate(165.185123, 211.122056)"><g/></g></g><g fill="#004aad" fill-opacity="1"><g transform="translate(167.674385, 211.122056)"><g><path d="M 6.21875 -2.375 C 6.164062 -1.601562 5.882812 -1 5.375 -0.5625 C 4.863281 -0.125 4.191406 0.09375 3.359375 0.09375 C 2.441406 0.09375 1.722656 -0.210938 1.203125 -0.828125 C 0.679688 -1.441406 0.421875 -2.28125 0.421875 -3.34375 L 0.421875 -3.78125 C 0.421875 -4.46875 0.539062 -5.070312 0.78125 -5.59375 C 1.019531 -6.113281 1.363281 -6.507812 1.8125 -6.78125 C 2.257812 -7.0625 2.78125 -7.203125 3.375 -7.203125 C 4.195312 -7.203125 4.859375 -6.984375 5.359375 -6.546875 C 5.859375 -6.109375 6.144531 -5.492188 6.21875 -4.703125 L 4.765625 -4.703125 C 4.722656 -5.160156 4.59375 -5.488281 4.375 -5.6875 C 4.15625 -5.894531 3.820312 -6 3.375 -6 C 2.882812 -6 2.519531 -5.820312 2.28125 -5.46875 C 2.039062 -5.125 1.914062 -4.585938 1.90625 -3.859375 L 1.90625 -3.3125 C 1.90625 -2.539062 2.019531 -1.976562 2.25 -1.625 C 2.488281 -1.269531 2.859375 -1.09375 3.359375 -1.09375 C 3.804688 -1.09375 4.140625 -1.195312 4.359375 -1.40625 C 4.585938 -1.613281 4.71875 -1.9375 4.75 -2.375 Z M 6.21875 -2.375 "/></g></g></g><g fill="#004aad" fill-opacity="1"><g transform="translate(174.214797, 211.122056)"><g><path d="M 2.03125 0 L 0.609375 0 L 0.609375 -7.5 L 2.03125 -7.5 Z M 2.03125 0 "/></g></g></g><g fill="#004aad" fill-opacity="1"><g transform="translate(176.865134, 211.122056)"><g><path d="M 0.328125 -2.6875 C 0.328125 -3.21875 0.425781 -3.6875 0.625 -4.09375 C 0.820312 -4.5 1.109375 -4.8125 1.484375 -5.03125 C 1.867188 -5.257812 2.3125 -5.375 2.8125 -5.375 C 3.53125 -5.375 4.113281 -5.15625 4.5625 -4.71875 C 5.007812 -4.289062 5.257812 -3.703125 5.3125 -2.953125 L 5.328125 -2.59375 C 5.328125 -1.78125 5.097656 -1.128906 4.640625 -0.640625 C 4.191406 -0.148438 3.585938 0.09375 2.828125 0.09375 C 2.066406 0.09375 1.457031 -0.148438 1 -0.640625 C 0.550781 -1.128906 0.328125 -1.789062 0.328125 -2.625 Z M 1.734375 -2.59375 C 1.734375 -2.09375 1.828125 -1.707031 2.015625 -1.4375 C 2.203125 -1.175781 2.472656 -1.046875 2.828125 -1.046875 C 3.171875 -1.046875 3.4375 -1.175781 3.625 -1.4375 C 3.820312 -1.695312 3.921875 -2.113281 3.921875 -2.6875 C 3.921875 -3.175781 3.820312 -3.554688 3.625 -3.828125 C 3.4375 -4.097656 3.164062 -4.234375 2.8125 -4.234375 C 2.46875 -4.234375 2.203125 -4.097656 2.015625 -3.828125 C 1.828125 -3.566406 1.734375 -3.15625 1.734375 -2.59375 Z M 1.734375 -2.59375 "/></g></g></g><g fill="#004aad" fill-opacity="1"><g transform="translate(182.517222, 211.122056)"><g><path d="M 3.703125 -0.53125 C 3.359375 -0.113281 2.878906 0.09375 2.265625 0.09375 C 1.691406 0.09375 1.253906 -0.0664062 0.953125 -0.390625 C 0.660156 -0.710938 0.515625 -1.191406 0.515625 -1.828125 L 0.515625 -5.28125 L 1.921875 -5.28125 L 1.921875 -1.875 C 1.921875 -1.320312 2.171875 -1.046875 2.671875 -1.046875 C 3.148438 -1.046875 3.476562 -1.210938 3.65625 -1.546875 L 3.65625 -5.28125 L 5.078125 -5.28125 L 5.078125 0 L 3.75 0 Z M 3.703125 -0.53125 "/></g></g></g><g fill="#004aad" fill-opacity="1"><g transform="translate(188.110739, 211.122056)"><g><path d="M 0.328125 -2.6875 C 0.328125 -3.507812 0.507812 -4.160156 0.875 -4.640625 C 1.25 -5.128906 1.753906 -5.375 2.390625 -5.375 C 2.910156 -5.375 3.335938 -5.1875 3.671875 -4.8125 L 3.671875 -7.5 L 5.078125 -7.5 L 5.078125 0 L 3.8125 0 L 3.734375 -0.5625 C 3.390625 -0.125 2.941406 0.09375 2.390625 0.09375 C 1.765625 0.09375 1.265625 -0.148438 0.890625 -0.640625 C 0.515625 -1.128906 0.328125 -1.8125 0.328125 -2.6875 Z M 1.734375 -2.578125 C 1.734375 -2.085938 1.816406 -1.707031 1.984375 -1.4375 C 2.160156 -1.175781 2.414062 -1.046875 2.75 -1.046875 C 3.1875 -1.046875 3.492188 -1.226562 3.671875 -1.59375 L 3.671875 -3.6875 C 3.492188 -4.050781 3.1875 -4.234375 2.75 -4.234375 C 2.070312 -4.234375 1.734375 -3.679688 1.734375 -2.578125 Z M 1.734375 -2.578125 "/></g></g></g><g fill="#004aad" fill-opacity="1"><g transform="translate(193.743303, 211.122056)"><g/></g></g><g fill="#004aad" fill-opacity="1"><g transform="translate(196.232565, 211.122056)"><g><path d="M 6.21875 -2.375 C 6.164062 -1.601562 5.882812 -1 5.375 -0.5625 C 4.863281 -0.125 4.191406 0.09375 3.359375 0.09375 C 2.441406 0.09375 1.722656 -0.210938 1.203125 -0.828125 C 0.679688 -1.441406 0.421875 -2.28125 0.421875 -3.34375 L 0.421875 -3.78125 C 0.421875 -4.46875 0.539062 -5.070312 0.78125 -5.59375 C 1.019531 -6.113281 1.363281 -6.507812 1.8125 -6.78125 C 2.257812 -7.0625 2.78125 -7.203125 3.375 -7.203125 C 4.195312 -7.203125 4.859375 -6.984375 5.359375 -6.546875 C 5.859375 -6.109375 6.144531 -5.492188 6.21875 -4.703125 L 4.765625 -4.703125 C 4.722656 -5.160156 4.59375 -5.488281 4.375 -5.6875 C 4.15625 -5.894531 3.820312 -6 3.375 -6 C 2.882812 -6 2.519531 -5.820312 2.28125 -5.46875 C 2.039062 -5.125 1.914062 -4.585938 1.90625 -3.859375 L 1.90625 -3.3125 C 1.90625 -2.539062 2.019531 -1.976562 2.25 -1.625 C 2.488281 -1.269531 2.859375 -1.09375 3.359375 -1.09375 C 3.804688 -1.09375 4.140625 -1.195312 4.359375 -1.40625 C 4.585938 -1.613281 4.71875 -1.9375 4.75 -2.375 Z M 6.21875 -2.375 "/></g></g></g><g fill="#004aad" fill-opacity="1"><g transform="translate(202.772977, 211.122056)"><g><path d="M 0.328125 -2.6875 C 0.328125 -3.21875 0.425781 -3.6875 0.625 -4.09375 C 0.820312 -4.5 1.109375 -4.8125 1.484375 -5.03125 C 1.867188 -5.257812 2.3125 -5.375 2.8125 -5.375 C 3.53125 -5.375 4.113281 -5.15625 4.5625 -4.71875 C 5.007812 -4.289062 5.257812 -3.703125 5.3125 -2.953125 L 5.328125 -2.59375 C 5.328125 -1.78125 5.097656 -1.128906 4.640625 -0.640625 C 4.191406 -0.148438 3.585938 0.09375 2.828125 0.09375 C 2.066406 0.09375 1.457031 -0.148438 1 -0.640625 C 0.550781 -1.128906 0.328125 -1.789062 0.328125 -2.625 Z M 1.734375 -2.59375 C 1.734375 -2.09375 1.828125 -1.707031 2.015625 -1.4375 C 2.203125 -1.175781 2.472656 -1.046875 2.828125 -1.046875 C 3.171875 -1.046875 3.4375 -1.175781 3.625 -1.4375 C 3.820312 -1.695312 3.921875 -2.113281 3.921875 -2.6875 C 3.921875 -3.175781 3.820312 -3.554688 3.625 -3.828125 C 3.4375 -4.097656 3.164062 -4.234375 2.8125 -4.234375 C 2.46875 -4.234375 2.203125 -4.097656 2.015625 -3.828125 C 1.828125 -3.566406 1.734375 -3.15625 1.734375 -2.59375 Z M 1.734375 -2.59375 "/></g></g></g><g fill="#004aad" fill-opacity="1"><g transform="translate(208.425065, 211.122056)"><g><path d="M 1.859375 -5.28125 L 1.90625 -4.6875 C 2.28125 -5.144531 2.785156 -5.375 3.421875 -5.375 C 4.109375 -5.375 4.578125 -5.109375 4.828125 -4.578125 C 5.203125 -5.109375 5.734375 -5.375 6.421875 -5.375 C 6.992188 -5.375 7.414062 -5.207031 7.6875 -4.875 C 7.96875 -4.539062 8.109375 -4.039062 8.109375 -3.375 L 8.109375 0 L 6.703125 0 L 6.703125 -3.375 C 6.703125 -3.664062 6.640625 -3.878906 6.515625 -4.015625 C 6.398438 -4.160156 6.195312 -4.234375 5.90625 -4.234375 C 5.476562 -4.234375 5.1875 -4.03125 5.03125 -3.625 L 5.03125 0 L 3.625 0 L 3.625 -3.359375 C 3.625 -3.671875 3.5625 -3.894531 3.4375 -4.03125 C 3.3125 -4.164062 3.109375 -4.234375 2.828125 -4.234375 C 2.421875 -4.234375 2.128906 -4.066406 1.953125 -3.734375 L 1.953125 0 L 0.546875 0 L 0.546875 -5.28125 Z M 1.859375 -5.28125 "/></g></g></g><g fill="#004aad" fill-opacity="1"><g transform="translate(217.078915, 211.122056)"><g><path d="M 5.296875 -2.59375 C 5.296875 -1.78125 5.109375 -1.128906 4.734375 -0.640625 C 4.367188 -0.148438 3.875 0.09375 3.25 0.09375 C 2.71875 0.09375 2.285156 -0.0859375 1.953125 -0.453125 L 1.953125 2.03125 L 0.546875 2.03125 L 0.546875 -5.28125 L 1.84375 -5.28125 L 1.90625 -4.765625 C 2.238281 -5.171875 2.679688 -5.375 3.234375 -5.375 C 3.890625 -5.375 4.394531 -5.132812 4.75 -4.65625 C 5.113281 -4.175781 5.296875 -3.515625 5.296875 -2.671875 Z M 3.890625 -2.703125 C 3.890625 -3.191406 3.800781 -3.566406 3.625 -3.828125 C 3.445312 -4.097656 3.191406 -4.234375 2.859375 -4.234375 C 2.421875 -4.234375 2.117188 -4.0625 1.953125 -3.71875 L 1.953125 -1.5625 C 2.128906 -1.21875 2.4375 -1.046875 2.875 -1.046875 C 3.550781 -1.046875 3.890625 -1.597656 3.890625 -2.703125 Z M 3.890625 -2.703125 "/></g></g></g><g fill="#004aad" fill-opacity="1"><g transform="translate(222.706604, 211.122056)"><g><path d="M 3.703125 -0.53125 C 3.359375 -0.113281 2.878906 0.09375 2.265625 0.09375 C 1.691406 0.09375 1.253906 -0.0664062 0.953125 -0.390625 C 0.660156 -0.710938 0.515625 -1.191406 0.515625 -1.828125 L 0.515625 -5.28125 L 1.921875 -5.28125 L 1.921875 -1.875 C 1.921875 -1.320312 2.171875 -1.046875 2.671875 -1.046875 C 3.148438 -1.046875 3.476562 -1.210938 3.65625 -1.546875 L 3.65625 -5.28125 L 5.078125 -5.28125 L 5.078125 0 L 3.75 0 Z M 3.703125 -0.53125 "/></g></g></g><g fill="#004aad" fill-opacity="1"><g transform="translate(228.300121, 211.122056)"><g><path d="M 2.234375 -6.578125 L 2.234375 -5.28125 L 3.140625 -5.28125 L 3.140625 -4.25 L 2.234375 -4.25 L 2.234375 -1.609375 C 2.234375 -1.410156 2.269531 -1.269531 2.34375 -1.1875 C 2.414062 -1.101562 2.5625 -1.0625 2.78125 -1.0625 C 2.9375 -1.0625 3.070312 -1.070312 3.1875 -1.09375 L 3.1875 -0.03125 C 2.914062 0.0507812 2.628906 0.09375 2.328125 0.09375 C 1.335938 0.09375 0.835938 -0.40625 0.828125 -1.40625 L 0.828125 -4.25 L 0.046875 -4.25 L 0.046875 -5.28125 L 0.828125 -5.28125 L 0.828125 -6.578125 Z M 2.234375 -6.578125 "/></g></g></g><g fill="#004aad" fill-opacity="1"><g transform="translate(231.677707, 211.122056)"><g><path d="M 2.03125 0 L 0.609375 0 L 0.609375 -5.28125 L 2.03125 -5.28125 Z M 0.53125 -6.65625 C 0.53125 -6.863281 0.597656 -7.035156 0.734375 -7.171875 C 0.878906 -7.304688 1.078125 -7.375 1.328125 -7.375 C 1.566406 -7.375 1.753906 -7.304688 1.890625 -7.171875 C 2.035156 -7.035156 2.109375 -6.863281 2.109375 -6.65625 C 2.109375 -6.4375 2.035156 -6.257812 1.890625 -6.125 C 1.753906 -5.988281 1.566406 -5.921875 1.328125 -5.921875 C 1.085938 -5.921875 0.894531 -5.988281 0.75 -6.125 C 0.601562 -6.257812 0.53125 -6.4375 0.53125 -6.65625 Z M 0.53125 -6.65625 "/></g></g></g><g fill="#004aad" fill-opacity="1"><g transform="translate(234.328044, 211.122056)"><g><path d="M 1.84375 -5.28125 L 1.890625 -4.671875 C 2.265625 -5.140625 2.769531 -5.375 3.40625 -5.375 C 3.96875 -5.375 4.382812 -5.207031 4.65625 -4.875 C 4.925781 -4.550781 5.066406 -4.0625 5.078125 -3.40625 L 5.078125 0 L 3.65625 0 L 3.65625 -3.375 C 3.65625 -3.675781 3.585938 -3.894531 3.453125 -4.03125 C 3.328125 -4.164062 3.113281 -4.234375 2.8125 -4.234375 C 2.414062 -4.234375 2.117188 -4.0625 1.921875 -3.71875 L 1.921875 0 L 0.515625 0 L 0.515625 -5.28125 Z M 1.84375 -5.28125 "/></g></g></g><g fill="#004aad" fill-opacity="1"><g transform="translate(239.926448, 211.122056)"><g><path d="M 0.34375 -2.6875 C 0.34375 -3.488281 0.535156 -4.132812 0.921875 -4.625 C 1.304688 -5.125 1.820312 -5.375 2.46875 -5.375 C 3.050781 -5.375 3.503906 -5.175781 3.828125 -4.78125 L 3.890625 -5.28125 L 5.171875 -5.28125 L 5.171875 -0.171875 C 5.171875 0.285156 5.0625 0.6875 4.84375 1.03125 C 4.632812 1.375 4.335938 1.632812 3.953125 1.8125 C 3.578125 1.988281 3.132812 2.078125 2.625 2.078125 C 2.238281 2.078125 1.859375 2 1.484375 1.84375 C 1.117188 1.6875 0.84375 1.488281 0.65625 1.25 L 1.28125 0.390625 C 1.632812 0.785156 2.0625 0.984375 2.5625 0.984375 C 2.9375 0.984375 3.226562 0.878906 3.4375 0.671875 C 3.644531 0.472656 3.75 0.191406 3.75 -0.171875 L 3.75 -0.453125 C 3.425781 -0.0859375 3 0.09375 2.46875 0.09375 C 1.832031 0.09375 1.316406 -0.148438 0.921875 -0.640625 C 0.535156 -1.140625 0.34375 -1.800781 0.34375 -2.625 Z M 1.75 -2.578125 C 1.75 -2.097656 1.84375 -1.722656 2.03125 -1.453125 C 2.226562 -1.179688 2.492188 -1.046875 2.828125 -1.046875 C 3.253906 -1.046875 3.5625 -1.207031 3.75 -1.53125 L 3.75 -3.75 C 3.5625 -4.070312 3.257812 -4.234375 2.84375 -4.234375 C 2.5 -4.234375 2.226562 -4.09375 2.03125 -3.8125 C 1.84375 -3.539062 1.75 -3.128906 1.75 -2.578125 Z M 1.75 -2.578125 "/></g></g></g><g fill="#004aad" fill-opacity="1"><g transform="translate(245.632231, 211.122056)"><g/></g></g><g fill="#004aad" fill-opacity="1"><g transform="translate(248.121493, 211.122056)"><g><path d="M 6.21875 -2.375 C 6.164062 -1.601562 5.882812 -1 5.375 -0.5625 C 4.863281 -0.125 4.191406 0.09375 3.359375 0.09375 C 2.441406 0.09375 1.722656 -0.210938 1.203125 -0.828125 C 0.679688 -1.441406 0.421875 -2.28125 0.421875 -3.34375 L 0.421875 -3.78125 C 0.421875 -4.46875 0.539062 -5.070312 0.78125 -5.59375 C 1.019531 -6.113281 1.363281 -6.507812 1.8125 -6.78125 C 2.257812 -7.0625 2.78125 -7.203125 3.375 -7.203125 C 4.195312 -7.203125 4.859375 -6.984375 5.359375 -6.546875 C 5.859375 -6.109375 6.144531 -5.492188 6.21875 -4.703125 L 4.765625 -4.703125 C 4.722656 -5.160156 4.59375 -5.488281 4.375 -5.6875 C 4.15625 -5.894531 3.820312 -6 3.375 -6 C 2.882812 -6 2.519531 -5.820312 2.28125 -5.46875 C 2.039062 -5.125 1.914062 -4.585938 1.90625 -3.859375 L 1.90625 -3.3125 C 1.90625 -2.539062 2.019531 -1.976562 2.25 -1.625 C 2.488281 -1.269531 2.859375 -1.09375 3.359375 -1.09375 C 3.804688 -1.09375 4.140625 -1.195312 4.359375 -1.40625 C 4.585938 -1.613281 4.71875 -1.9375 4.75 -2.375 Z M 6.21875 -2.375 "/></g></g></g><g fill="#004aad" fill-opacity="1"><g transform="translate(254.661905, 211.122056)"><g><path d="M 2.03125 0 L 0.609375 0 L 0.609375 -7.5 L 2.03125 -7.5 Z M 2.03125 0 "/></g></g></g><g fill="#004aad" fill-opacity="1"><g transform="translate(257.312242, 211.122056)"><g><path d="M 3.703125 -0.53125 C 3.359375 -0.113281 2.878906 0.09375 2.265625 0.09375 C 1.691406 0.09375 1.253906 -0.0664062 0.953125 -0.390625 C 0.660156 -0.710938 0.515625 -1.191406 0.515625 -1.828125 L 0.515625 -5.28125 L 1.921875 -5.28125 L 1.921875 -1.875 C 1.921875 -1.320312 2.171875 -1.046875 2.671875 -1.046875 C 3.148438 -1.046875 3.476562 -1.210938 3.65625 -1.546875 L 3.65625 -5.28125 L 5.078125 -5.28125 L 5.078125 0 L 3.75 0 Z M 3.703125 -0.53125 "/></g></g></g><g fill="#004aad" fill-opacity="1"><g transform="translate(262.905759, 211.122056)"><g><path d="M 5.296875 -2.59375 C 5.296875 -1.75 5.113281 -1.085938 4.75 -0.609375 C 4.394531 -0.140625 3.894531 0.09375 3.25 0.09375 C 2.675781 0.09375 2.21875 -0.125 1.875 -0.5625 L 1.8125 0 L 0.546875 0 L 0.546875 -7.5 L 1.953125 -7.5 L 1.953125 -4.8125 C 2.273438 -5.1875 2.703125 -5.375 3.234375 -5.375 C 3.878906 -5.375 4.382812 -5.132812 4.75 -4.65625 C 5.113281 -4.1875 5.296875 -3.523438 5.296875 -2.671875 Z M 3.890625 -2.703125 C 3.890625 -3.234375 3.804688 -3.617188 3.640625 -3.859375 C 3.472656 -4.109375 3.21875 -4.234375 2.875 -4.234375 C 2.425781 -4.234375 2.117188 -4.050781 1.953125 -3.6875 L 1.953125 -1.59375 C 2.128906 -1.226562 2.441406 -1.046875 2.890625 -1.046875 C 3.347656 -1.046875 3.648438 -1.269531 3.796875 -1.71875 C 3.859375 -1.925781 3.890625 -2.253906 3.890625 -2.703125 Z M 3.890625 -2.703125 "/></g></g></g></svg>